<mxfile host="app.diagrams.net" modified="2023-05-17T14:45:55.373Z" agent="Mozilla/5.0 (Windows NT 10.0; Win64; x64) AppleWebKit/537.36 (KHTML, like Gecko) Chrome/113.0.0.0 Safari/537.36 Edg/113.0.1774.42" etag="y9wFKxblksnuz8a-1TEV" version="21.3.2" type="device">
  <diagram name="Page-1" id="Vf9_vrIpa7qaZsOBXVjF">
    <mxGraphModel dx="901" dy="452" grid="1" gridSize="10" guides="1" tooltips="1" connect="1" arrows="1" fold="1" page="1" pageScale="1" pageWidth="827" pageHeight="1169" math="0" shadow="0">
      <root>
        <mxCell id="0" />
        <mxCell id="1" parent="0" />
        <mxCell id="Tac1BlyIh8F7AcOJ1vz7-37" style="edgeStyle=orthogonalEdgeStyle;rounded=0;orthogonalLoop=1;jettySize=auto;html=1;" parent="1" source="Tac1BlyIh8F7AcOJ1vz7-4" target="Tac1BlyIh8F7AcOJ1vz7-36" edge="1">
          <mxGeometry relative="1" as="geometry">
            <Array as="points">
              <mxPoint x="245" y="195" />
              <mxPoint x="245" y="245" />
            </Array>
          </mxGeometry>
        </mxCell>
        <mxCell id="Tac1BlyIh8F7AcOJ1vz7-4" value="" style="shape=umlActor;verticalLabelPosition=bottom;verticalAlign=top;html=1;" parent="1" vertex="1">
          <mxGeometry x="30" y="150" width="50" height="90" as="geometry" />
        </mxCell>
        <mxCell id="Tac1BlyIh8F7AcOJ1vz7-13" value="utilisateur" style="text;html=1;align=center;verticalAlign=middle;resizable=0;points=[];autosize=1;strokeColor=none;fillColor=none;" parent="1" vertex="1">
          <mxGeometry x="20" y="240" width="70" height="30" as="geometry" />
        </mxCell>
        <mxCell id="Tac1BlyIh8F7AcOJ1vz7-14" value="" style="rounded=0;whiteSpace=wrap;html=1;" parent="1" vertex="1">
          <mxGeometry x="140" y="110" width="810" height="410" as="geometry" />
        </mxCell>
        <mxCell id="Tac1BlyIh8F7AcOJ1vz7-15" value="Gestion du stock" style="rounded=0;whiteSpace=wrap;html=1;" parent="1" vertex="1">
          <mxGeometry x="140" y="110" width="180" height="30" as="geometry" />
        </mxCell>
        <mxCell id="Tac1BlyIh8F7AcOJ1vz7-19" style="rounded=0;orthogonalLoop=1;jettySize=auto;html=1;endArrow=none;endFill=0;exitX=-0.01;exitY=0.598;exitDx=0;exitDy=0;exitPerimeter=0;" parent="1" source="Tac1BlyIh8F7AcOJ1vz7-17" edge="1">
          <mxGeometry relative="1" as="geometry">
            <mxPoint x="70" y="195" as="targetPoint" />
          </mxGeometry>
        </mxCell>
        <mxCell id="Tac1BlyIh8F7AcOJ1vz7-25" style="edgeStyle=orthogonalEdgeStyle;rounded=0;orthogonalLoop=1;jettySize=auto;html=1;dashed=1;endArrow=open;endFill=0;" parent="1" source="Tac1BlyIh8F7AcOJ1vz7-17" target="Tac1BlyIh8F7AcOJ1vz7-24" edge="1">
          <mxGeometry relative="1" as="geometry" />
        </mxCell>
        <mxCell id="Tac1BlyIh8F7AcOJ1vz7-17" value="Voir le stock" style="ellipse;whiteSpace=wrap;html=1;" parent="1" vertex="1">
          <mxGeometry x="520" y="150" width="120" height="80" as="geometry" />
        </mxCell>
        <mxCell id="Tac1BlyIh8F7AcOJ1vz7-24" value="Authentification" style="ellipse;whiteSpace=wrap;html=1;" parent="1" vertex="1">
          <mxGeometry x="770" y="310" width="120" height="80" as="geometry" />
        </mxCell>
        <mxCell id="Tac1BlyIh8F7AcOJ1vz7-27" value="include" style="text;html=1;align=center;verticalAlign=middle;resizable=0;points=[];autosize=1;strokeColor=none;fillColor=none;" parent="1" vertex="1">
          <mxGeometry x="720" y="160" width="60" height="30" as="geometry" />
        </mxCell>
        <mxCell id="Tac1BlyIh8F7AcOJ1vz7-38" style="edgeStyle=orthogonalEdgeStyle;rounded=0;orthogonalLoop=1;jettySize=auto;html=1;endArrow=none;endFill=0;" parent="1" edge="1">
          <mxGeometry relative="1" as="geometry">
            <mxPoint x="220" y="195" as="targetPoint" />
            <mxPoint x="410" y="250" as="sourcePoint" />
          </mxGeometry>
        </mxCell>
        <mxCell id="fbJliasXUYRfLEAVH-bt-9" style="edgeStyle=orthogonalEdgeStyle;rounded=0;orthogonalLoop=1;jettySize=auto;html=1;endArrow=open;endFill=0;dashed=1;" edge="1" parent="1" source="Tac1BlyIh8F7AcOJ1vz7-36" target="Tac1BlyIh8F7AcOJ1vz7-24">
          <mxGeometry relative="1" as="geometry">
            <Array as="points">
              <mxPoint x="790" y="245" />
            </Array>
          </mxGeometry>
        </mxCell>
        <mxCell id="Tac1BlyIh8F7AcOJ1vz7-36" value="Demander&amp;nbsp; un matériel&amp;nbsp;" style="ellipse;whiteSpace=wrap;html=1;" parent="1" vertex="1">
          <mxGeometry x="410" y="212.5" width="110" height="65" as="geometry" />
        </mxCell>
        <mxCell id="fbJliasXUYRfLEAVH-bt-11" style="edgeStyle=orthogonalEdgeStyle;rounded=0;orthogonalLoop=1;jettySize=auto;html=1;endArrow=open;endFill=0;dashed=1;" edge="1" parent="1" source="fbJliasXUYRfLEAVH-bt-1" target="Tac1BlyIh8F7AcOJ1vz7-24">
          <mxGeometry relative="1" as="geometry" />
        </mxCell>
        <mxCell id="fbJliasXUYRfLEAVH-bt-1" value="Demander&amp;nbsp; leur profile" style="ellipse;whiteSpace=wrap;html=1;" vertex="1" parent="1">
          <mxGeometry x="414" y="295" width="110" height="65" as="geometry" />
        </mxCell>
        <mxCell id="fbJliasXUYRfLEAVH-bt-13" style="edgeStyle=orthogonalEdgeStyle;rounded=0;orthogonalLoop=1;jettySize=auto;html=1;endArrow=open;endFill=0;dashed=1;" edge="1" parent="1" source="fbJliasXUYRfLEAVH-bt-2" target="Tac1BlyIh8F7AcOJ1vz7-24">
          <mxGeometry relative="1" as="geometry" />
        </mxCell>
        <mxCell id="fbJliasXUYRfLEAVH-bt-2" value="Consulter les notifications reçues" style="ellipse;whiteSpace=wrap;html=1;" vertex="1" parent="1">
          <mxGeometry x="413" y="397" width="130" height="65" as="geometry" />
        </mxCell>
        <mxCell id="fbJliasXUYRfLEAVH-bt-3" style="edgeStyle=orthogonalEdgeStyle;rounded=0;orthogonalLoop=1;jettySize=auto;html=1;endArrow=none;endFill=0;" edge="1" parent="1">
          <mxGeometry relative="1" as="geometry">
            <mxPoint x="220" y="250" as="targetPoint" />
            <mxPoint x="414" y="430" as="sourcePoint" />
            <Array as="points">
              <mxPoint x="414" y="430" />
              <mxPoint x="220" y="430" />
            </Array>
          </mxGeometry>
        </mxCell>
        <mxCell id="fbJliasXUYRfLEAVH-bt-8" style="rounded=0;orthogonalLoop=1;jettySize=auto;html=1;endArrow=none;endFill=0;" edge="1" parent="1">
          <mxGeometry relative="1" as="geometry">
            <mxPoint x="220" y="325" as="targetPoint" />
            <mxPoint x="414" y="325" as="sourcePoint" />
          </mxGeometry>
        </mxCell>
        <mxCell id="fbJliasXUYRfLEAVH-bt-10" value="include" style="text;html=1;align=center;verticalAlign=middle;resizable=0;points=[];autosize=1;strokeColor=none;fillColor=none;" vertex="1" parent="1">
          <mxGeometry x="680" y="218" width="60" height="30" as="geometry" />
        </mxCell>
        <mxCell id="fbJliasXUYRfLEAVH-bt-12" value="include" style="text;html=1;align=center;verticalAlign=middle;resizable=0;points=[];autosize=1;strokeColor=none;fillColor=none;" vertex="1" parent="1">
          <mxGeometry x="660" y="320" width="60" height="30" as="geometry" />
        </mxCell>
        <mxCell id="fbJliasXUYRfLEAVH-bt-14" value="include" style="text;html=1;align=center;verticalAlign=middle;resizable=0;points=[];autosize=1;strokeColor=none;fillColor=none;" vertex="1" parent="1">
          <mxGeometry x="640" y="401" width="60" height="30" as="geometry" />
        </mxCell>
      </root>
    </mxGraphModel>
  </diagram>
</mxfile>
